<svg width="5830" height="2000" viewBox="0 0 5830 2000" fill="none" xmlns="http://www.w3.org/2000/svg">
<rect width="5830" height="2000" fill="white"/>
<g filter="url(#filter0_i_3_19603)">
<path d="M1640 378.361C1639.52 371.438 1636.42 364.957 1631.34 360.23C1626.26 355.504 1619.57 352.884 1612.63 352.901H388.333C381.392 352.884 374.704 355.504 369.622 360.23C364.539 364.957 361.442 371.438 360.956 378.361L98.0744 1670.28C97.7944 1674.07 98.3069 1677.88 99.5795 1681.46C100.852 1685.04 102.857 1688.32 105.466 1691.08C108.019 1693.83 111.11 1696.03 114.548 1697.54C117.986 1699.05 121.697 1699.83 125.451 1699.84H1875.78C1879.54 1699.83 1883.25 1699.05 1886.69 1697.54C1890.12 1696.03 1893.21 1693.83 1895.77 1691.08C1898.38 1688.32 1900.38 1685.04 1901.65 1681.46C1902.93 1677.88 1903.44 1674.07 1903.16 1670.28L1640 378.361Z" fill="url(#paint0_linear_3_19603)"/>
</g>
<path d="M1872.09 386.914C1872.99 400.397 1874.36 418.524 1869.77 431.481C1860.72 457.218 1840.21 455.111 1818.71 461.374C1786.24 470.857 1787.76 505.785 1787.88 532.966C1787.97 558.781 1789.28 584.655 1791.88 610.373C1808.15 713.907 1780.5 823.061 1711.88 906.068C1613.75 1025.1 1445.51 1070.87 1300.55 1017.82C1155 964.489 1058.12 824.329 1056.84 669.848C1057.15 636.056 1062.06 602.464 1071.45 570.001C1050.01 558.132 1025.91 551.904 1001.41 551.904C976.907 551.904 952.805 558.132 931.369 570.001C940.682 602.478 945.565 636.064 945.886 669.848C944.403 843.959 820.244 999.163 648.104 1032.78C496.607 1062.46 339.257 993.563 259.06 861.52C214.064 787.489 198.278 700.853 210.045 617.866C213.662 585.894 215.246 553.724 214.786 521.551C214.572 507.678 215.157 492.282 207.898 479.97C197.459 462.233 182.883 462.408 165.478 458.916C144.443 454.642 131.74 437.998 130.609 417.002C129.828 402.7 128.345 383.948 134.023 370.523C146.589 340.942 178.317 344.962 204.464 344.962H392.917C394.487 344.938 396.044 345.251 397.483 345.879C489.407 295.926 601.41 284.98 702.134 321.878C790.27 354.431 862.787 419.187 905.066 503.092C934.387 486.236 967.621 477.373 1001.44 477.39C1035.26 477.407 1068.49 486.304 1097.79 503.19C1148.12 404.475 1240.86 329.078 1354.6 306.795C1440.06 290.335 1528.59 304.249 1604.89 346.132C1606.41 345.404 1608.08 345.036 1609.77 345.059H1810.04C1839.61 345.059 1869.73 350.269 1872.09 386.914ZM1724.62 850.515C1766.24 782.006 1781.52 701.556 1771.45 624.168C1771.27 623.574 1771.13 622.968 1771.04 622.354C1770.84 620.578 1770.69 618.802 1770.51 617.066C1761.27 554.426 1734.94 495.546 1694.41 446.896C1601.2 335.674 1445.9 293.312 1309.13 342.035C1171.41 391.09 1080.02 524.576 1078.88 669.848C1080.27 833.539 1196.25 978.148 1357.55 1011.07C1500.01 1040.12 1649.24 974.674 1724.62 850.515ZM693.51 997.66C831.191 948.586 922.588 815.1 923.759 669.848C922.374 506.136 806.39 361.547 645.079 328.63C502.637 299.575 353.424 365.021 278.007 489.18C254.681 527.705 239.16 570.443 232.328 614.958C232.074 617.456 231.84 619.954 231.548 622.451C231.443 623.336 231.24 624.206 230.943 625.046C219.059 719.429 245.324 817.773 308.154 892.702C401.444 1003.87 556.746 1046.29 693.51 997.66Z" fill="url(#paint1_radial_3_19603)"/>
<path d="M577.603 1033.86C449.873 1033.86 329.792 966.693 264.054 858.574C221.126 787.86 203.935 702.687 215.838 618.783C219.499 586.507 221.103 554.031 220.638 521.551C220.638 520.302 220.638 519.034 220.638 517.766C220.502 504.575 220.365 489.648 212.97 477.082C202.706 459.52 188.774 457.179 173.945 454.603C171.564 454.174 169.105 453.764 166.608 453.237C149.046 449.686 137.436 435.676 136.422 416.768L136.266 413.939C135.505 400.69 134.587 384.202 139.388 372.962C147.193 354.503 163.466 350.796 187.135 350.796C190.062 350.796 192.989 350.796 195.896 350.796C198.804 350.796 201.633 350.893 204.423 350.893H392.877C393.62 350.873 394.358 351.013 395.042 351.303L397.696 352.493L400.252 351.108C454.743 321.456 515.781 305.894 577.818 305.839C619.537 305.747 660.946 313.013 700.142 327.303C786.623 358.972 857.571 422.31 899.893 505.687L902.703 511.209L908.069 508.087C936.482 491.731 968.692 483.122 1001.48 483.122C1034.26 483.122 1066.47 491.731 1094.88 508.087L1100.23 511.209L1103.06 505.687C1127.85 457.043 1163 414.418 1206.03 380.806C1249.84 346.512 1301.14 323.075 1355.75 312.415C1378.56 307.959 1401.75 305.718 1425 305.722C1486.9 305.839 1547.79 321.456 1602.12 351.147L1604.75 352.591L1607.46 351.284C1608.19 350.943 1608.98 350.776 1609.78 350.796H1810.06C1848.29 350.796 1864.56 361.352 1866.28 387.207V388.221C1867.12 400.768 1868.23 417.939 1864.33 429.432C1858.28 446.603 1846.76 448.945 1831.02 452.34C1826.53 453.296 1821.91 454.291 1817.13 455.657C1781.65 466.018 1781.89 502.858 1782 529.805V532.966C1782.12 559.269 1783.47 585.494 1786.04 611.017V611.348C1802.45 715.819 1773.77 821.909 1707.33 902.399C1639.4 984.723 1533.84 1033.9 1424.94 1033.9C1383.19 1034 1341.74 1026.73 1302.52 1012.43C1160.37 960.254 1063.98 822.592 1062.69 669.847C1063.01 636.616 1067.86 603.584 1077.09 571.66L1078.38 567.211L1074.32 564.928C1052.01 552.576 1026.92 546.097 1001.42 546.097C975.915 546.097 950.831 552.576 928.519 564.928L924.48 567.191L925.748 571.66C942.198 627.925 944.481 687.385 932.392 744.746C920.303 802.107 894.218 855.588 856.458 900.428C802.857 966.245 728.475 1011.28 646.97 1027.26C624.115 1031.69 600.884 1033.9 577.603 1033.86V1033.86ZM1425.29 316.298C1385.07 316.249 1345.13 323.127 1307.24 336.63C1168.41 386.075 1074.28 520.049 1073.09 669.808C1074.49 837.617 1193.66 983.591 1356.45 1016.8C1379.19 1021.42 1402.34 1023.75 1425.55 1023.75C1549.35 1023.75 1665.9 958.537 1729.69 853.559C1770.9 785.733 1787.82 704.034 1777.34 623.505V623.193L1777.14 622.412C1777.07 622.209 1777.02 622 1776.99 621.788C1776.87 620.656 1776.75 619.524 1776.66 618.392L1776.46 616.441V616.305C1767.09 552.598 1740.32 492.714 1699.09 443.247C1665.54 403.32 1623.63 371.253 1576.31 349.316C1529 327.378 1477.44 316.107 1425.29 316.298V316.298ZM577.232 315.946C453.405 315.946 336.856 381.158 273.069 486.136C249.318 525.306 233.53 568.778 226.609 614.061V614.373L226.434 616.324C226.258 618.139 226.063 619.973 225.848 621.788C225.798 622.26 225.693 622.725 225.536 623.173L225.341 623.758V624.344C212.911 722.98 241.536 822.163 303.86 896.506C337.389 936.39 379.265 968.426 426.532 990.352C473.799 1012.28 525.303 1023.56 577.408 1023.4C617.634 1023.45 657.568 1016.57 695.459 1003.07C834.272 953.6 928.402 819.646 929.611 669.906C928.265 502.039 809.082 356.084 646.287 322.893C623.559 318.278 600.425 315.95 577.232 315.946V315.946Z" fill="url(#paint2_radial_3_19603)"/>
<path opacity="0.3" d="M923.837 669.847C922.588 815.002 831.191 948.488 693.588 997.66C556.824 1046.44 401.522 1003.96 308.31 892.799C245.48 817.87 219.215 719.527 231.099 625.144C231.396 624.304 231.599 623.434 231.704 622.549C231.996 620.051 232.23 617.553 232.484 615.056C239.316 570.54 254.837 527.803 278.163 489.277C353.58 365.118 502.754 299.673 645.235 328.727C806.468 361.547 922.452 506.136 923.837 669.847Z" fill="url(#paint3_radial_3_19603)"/>
<path opacity="0.3" d="M1774.84 669.847C1773.59 815.002 1682.19 948.488 1544.59 997.66C1407.82 1046.44 1252.52 1003.96 1159.31 892.799C1096.48 817.87 1070.22 719.527 1082.1 625.144C1082.4 624.304 1082.6 623.434 1082.7 622.549C1083 620.051 1083.23 617.553 1083.48 615.056C1090.32 570.54 1105.84 527.803 1129.16 489.277C1204.58 365.118 1353.75 299.673 1496.24 328.727C1657.47 361.547 1773.45 506.136 1774.84 669.847Z" fill="url(#paint4_radial_3_19603)"/>
<g style="mix-blend-mode:multiply" opacity="0.6">
<path style="mix-blend-mode:multiply" d="M1083.37 627.856C1083.66 625.358 1083.9 622.861 1084.13 620.363C1090.98 575.851 1106.5 533.116 1129.81 494.585C1205.31 370.425 1354.48 308.863 1497.04 337.937C1574.57 353.612 1644.44 395.265 1695.1 456.017C1745.77 516.768 1774.19 592.983 1775.68 672.072C1775.68 671.33 1775.68 670.589 1775.68 669.847C1774.28 506.136 1658.31 361.547 1496.98 328.629C1354.54 299.575 1205.35 365.021 1129.91 489.18C1106.59 527.71 1091.07 570.445 1084.23 614.958C1084 617.456 1083.76 619.953 1083.47 622.451C1083.36 623.336 1083.16 624.206 1082.86 625.046C1080.91 640.676 1079.99 656.418 1080.11 672.169C1080.22 658.222 1081.14 644.292 1082.86 630.451C1083.13 629.607 1083.3 628.737 1083.37 627.856Z" fill="url(#paint5_radial_3_19603)"/>
</g>
<g style="mix-blend-mode:overlay" opacity="0.2">
<path d="M1123.04 631.837C1117.19 685.263 1122.83 734.298 1137.28 777.85C1155.82 833.695 1237.85 825.344 1244.37 766.864C1260.53 621.417 1380.8 498.702 1525.84 482.545C1584.38 476.009 1592.53 393.821 1536.51 375.382C1361.95 317.917 1148.07 423.168 1123.04 631.837Z" fill="white"/>
</g>
<g opacity="0.1">
<path d="M918.471 664.482C917.222 809.637 825.825 943.123 688.221 992.295C562.228 1037.17 420.508 1004.72 326.105 912.43C420.371 1008.72 565.116 1043.3 693.509 997.661C831.191 948.586 922.588 815.1 923.759 669.848C923.017 573.924 917.671 571.192 918.471 664.482Z" fill="white"/>
</g>
<g opacity="0.1">
<path d="M1770.08 664.482C1768.84 809.637 1677.42 943.123 1539.83 992.295C1413.86 1037.17 1272.14 1004.72 1177.74 912.429C1272.08 1008.82 1416.81 1043.4 1545.2 997.661C1682.88 948.586 1774.3 815.1 1775.45 669.848C1774.63 573.924 1769.28 571.192 1770.08 664.482Z" fill="white"/>
</g>
<path d="M352.993 380.455C356.765 380.455 359.823 377.398 359.823 373.626C359.823 369.854 356.765 366.797 352.993 366.797C349.222 366.797 346.164 369.854 346.164 373.626C346.164 377.398 349.222 380.455 352.993 380.455Z" fill="url(#paint6_radial_3_19603)"/>
<path d="M316.348 383.46C320.949 383.46 324.679 379.73 324.679 375.129C324.679 370.527 320.949 366.797 316.348 366.797C311.746 366.797 308.016 370.527 308.016 375.129C308.016 379.73 311.746 383.46 316.348 383.46Z" fill="url(#paint7_radial_3_19603)"/>
<path d="M279.725 386.504C285.167 386.504 289.579 382.093 289.579 376.651C289.579 371.208 285.167 366.797 279.725 366.797C274.283 366.797 269.871 371.208 269.871 376.651C269.871 382.093 274.283 386.504 279.725 386.504Z" fill="url(#paint8_radial_3_19603)"/>
<path d="M243.079 389.509C249.351 389.509 254.435 384.425 254.435 378.153C254.435 371.881 249.351 366.797 243.079 366.797C236.807 366.797 231.723 371.881 231.723 378.153C231.723 384.425 236.807 389.509 243.079 389.509Z" fill="url(#paint9_radial_3_19603)"/>
<path d="M206.456 392.553C213.569 392.553 219.335 386.787 219.335 379.675C219.335 372.562 213.569 366.797 206.456 366.797C199.344 366.797 193.578 372.562 193.578 379.675C193.578 386.787 199.344 392.553 206.456 392.553Z" fill="url(#paint10_radial_3_19603)"/>
<path d="M169.811 395.558C177.753 395.558 184.191 389.12 184.191 381.177C184.191 373.235 177.753 366.797 169.811 366.797C161.868 366.797 155.43 373.235 155.43 381.177C155.43 389.12 161.868 395.558 169.811 395.558Z" fill="url(#paint11_radial_3_19603)"/>
<g opacity="0.8">
<path d="M351.65 379.109C355.422 379.109 358.479 376.051 358.479 372.279C358.479 368.507 355.422 365.45 351.65 365.45C347.878 365.45 344.82 368.507 344.82 372.279C344.82 376.051 347.878 379.109 351.65 379.109Z" fill="url(#paint12_linear_3_19603)"/>
<path d="M315.023 382.133C319.636 382.133 323.375 378.394 323.375 373.782C323.375 369.169 319.636 365.43 315.023 365.43C310.411 365.43 306.672 369.169 306.672 373.782C306.672 378.394 310.411 382.133 315.023 382.133Z" fill="url(#paint13_linear_3_19603)"/>
<path d="M278.377 385.158C283.819 385.158 288.231 380.746 288.231 375.304C288.231 369.861 283.819 365.45 278.377 365.45C272.935 365.45 268.523 369.861 268.523 375.304C268.523 380.746 272.935 385.158 278.377 385.158Z" fill="url(#paint14_linear_3_19603)"/>
<path d="M241.751 388.162C248.023 388.162 253.107 383.078 253.107 376.806C253.107 370.534 248.023 365.45 241.751 365.45C235.479 365.45 230.395 370.534 230.395 376.806C230.395 383.078 235.479 388.162 241.751 388.162Z" fill="url(#paint15_linear_3_19603)"/>
<path d="M205.109 391.206C212.221 391.206 217.987 385.441 217.987 378.328C217.987 371.216 212.221 365.45 205.109 365.45C197.996 365.45 192.23 371.216 192.23 378.328C192.23 385.441 197.996 391.206 205.109 391.206Z" fill="url(#paint16_linear_3_19603)"/>
<path d="M168.482 394.231C176.425 394.231 182.863 387.793 182.863 379.85C182.863 371.908 176.425 365.469 168.482 365.469C160.54 365.469 154.102 371.908 154.102 379.85C154.102 387.793 160.54 394.231 168.482 394.231Z" fill="url(#paint17_linear_3_19603)"/>
<g style="mix-blend-mode:multiply">
<path style="mix-blend-mode:multiply" d="M1653.1 380.533C1656.87 380.533 1659.93 377.476 1659.93 373.704C1659.93 369.932 1656.87 366.875 1653.1 366.875C1649.33 366.875 1646.27 369.932 1646.27 373.704C1646.27 377.476 1649.33 380.533 1653.1 380.533Z" fill="url(#paint18_radial_3_19603)"/>
<path style="mix-blend-mode:multiply" d="M1689.73 383.538C1694.33 383.538 1698.06 379.808 1698.06 375.206C1698.06 370.605 1694.33 366.875 1689.73 366.875C1685.13 366.875 1681.4 370.605 1681.4 375.206C1681.4 379.808 1685.13 383.538 1689.73 383.538Z" fill="url(#paint19_radial_3_19603)"/>
<path style="mix-blend-mode:multiply" d="M1726.37 386.582C1731.82 386.582 1736.23 382.171 1736.23 376.728C1736.23 371.286 1731.82 366.875 1726.37 366.875C1720.93 366.875 1716.52 371.286 1716.52 376.728C1716.52 382.171 1720.93 386.582 1726.37 386.582Z" fill="url(#paint20_radial_3_19603)"/>
<path style="mix-blend-mode:multiply" d="M1763 389.587C1769.27 389.587 1774.35 384.503 1774.35 378.231C1774.35 371.959 1769.27 366.875 1763 366.875C1756.73 366.875 1751.64 371.959 1751.64 378.231C1751.64 384.503 1756.73 389.587 1763 389.587Z" fill="url(#paint21_radial_3_19603)"/>
<path style="mix-blend-mode:multiply" d="M1799.64 392.631C1806.76 392.631 1812.52 386.865 1812.52 379.753C1812.52 372.64 1806.76 366.875 1799.64 366.875C1792.53 366.875 1786.77 372.64 1786.77 379.753C1786.77 386.865 1792.53 392.631 1799.64 392.631Z" fill="url(#paint22_radial_3_19603)"/>
<path style="mix-blend-mode:multiply" d="M1836.27 395.636C1844.21 395.636 1850.65 389.198 1850.65 381.255C1850.65 373.313 1844.21 366.875 1836.27 366.875C1828.33 366.875 1821.89 373.313 1821.89 381.255C1821.89 389.198 1828.33 395.636 1836.27 395.636Z" fill="url(#paint23_radial_3_19603)"/>
</g>
<path d="M1651.19 379.109C1654.96 379.109 1658.02 376.051 1658.02 372.279C1658.02 368.507 1654.96 365.45 1651.19 365.45C1647.42 365.45 1644.36 368.507 1644.36 372.279C1644.36 376.051 1647.42 379.109 1651.19 379.109Z" fill="url(#paint24_linear_3_19603)"/>
<path d="M1687.82 382.114C1692.42 382.114 1696.15 378.383 1696.15 373.782C1696.15 369.18 1692.42 365.45 1687.82 365.45C1683.21 365.45 1679.48 369.18 1679.48 373.782C1679.48 378.383 1683.21 382.114 1687.82 382.114Z" fill="url(#paint25_linear_3_19603)"/>
<path d="M1724.46 385.158C1729.9 385.158 1734.31 380.746 1734.31 375.304C1734.31 369.861 1729.9 365.45 1724.46 365.45C1719.02 365.45 1714.61 369.861 1714.61 375.304C1714.61 380.746 1719.02 385.158 1724.46 385.158Z" fill="url(#paint26_linear_3_19603)"/>
<path d="M1761.1 388.162C1767.37 388.162 1772.46 383.078 1772.46 376.806C1772.46 370.534 1767.37 365.45 1761.1 365.45C1754.83 365.45 1749.75 370.534 1749.75 376.806C1749.75 383.078 1754.83 388.162 1761.1 388.162Z" fill="url(#paint27_linear_3_19603)"/>
<path d="M1797.73 391.206C1804.84 391.206 1810.61 385.441 1810.61 378.328C1810.61 371.216 1804.84 365.45 1797.73 365.45C1790.62 365.45 1784.85 371.216 1784.85 378.328C1784.85 385.441 1790.62 391.206 1797.73 391.206Z" fill="url(#paint28_linear_3_19603)"/>
<path d="M1834.37 394.231C1842.32 394.231 1848.75 387.793 1848.75 379.851C1848.75 371.908 1842.32 365.47 1834.37 365.47C1826.43 365.47 1819.99 371.908 1819.99 379.851C1819.99 387.793 1826.43 394.231 1834.37 394.231Z" fill="url(#paint29_linear_3_19603)"/>
</g>
<g style="mix-blend-mode:multiply" opacity="0.6">
<g style="mix-blend-mode:multiply">
<path d="M231.625 627.856C231.917 625.358 232.151 622.861 232.405 620.363C239.242 575.849 254.762 533.112 278.084 494.585C353.598 370.425 502.675 310.814 645.156 339.888C805.433 372.572 920.909 509.648 923.778 672.072C923.778 671.33 923.778 670.589 923.778 669.847C922.392 506.136 806.409 361.547 645.098 328.629C502.655 299.575 353.442 365.021 278.026 489.18C254.699 527.705 239.178 570.442 232.347 614.958C232.093 617.456 231.859 619.953 231.566 622.451C231.461 623.336 231.258 624.206 230.961 625.046C228.999 640.675 228.087 656.418 228.229 672.169C228.321 658.222 229.233 644.292 230.961 630.451C231.278 629.614 231.501 628.743 231.625 627.856V627.856Z" fill="#231F20"/>
</g>
</g>
<g style="mix-blend-mode:overlay" opacity="0.2">
<path d="M266.359 710.414C266.613 711.878 266.847 713.322 267.101 714.766C282.067 800.622 406.089 799.626 418.831 713.38C430.561 634.789 470.01 562.984 530.053 510.936C597.606 452.984 530.346 345.079 449.329 381.938C330.302 436.027 243.627 560.323 266.301 710.414" fill="white"/>
</g>
<path opacity="0.08" d="M1042.75 502.468C1046.34 495.307 1040.8 488.809 991.45 491.248C942.141 493.199 903.896 523.503 905.262 524.732C905.262 524.732 947.546 503.268 991.45 501.57C1035.29 499.131 1040.64 506.292 1042.75 502.468Z" fill="white"/>
<rect width="27.0366" height="27.0366" transform="translate(338.559 1599.23)" fill="white"/>
<rect width="27.0366" height="27.0366" transform="translate(392.633 1599.23)" fill="white"/>
<rect width="27.0366" height="27.0366" transform="translate(446.707 1599.23)" fill="white"/>
<rect width="27.0366" height="27.0366" transform="translate(500.777 1599.23)" fill="white"/>
<rect width="27.0366" height="27.0366" transform="translate(554.852 1599.23)" fill="white"/>
<rect width="27.0366" height="27.0366" transform="translate(608.926 1599.23)" fill="white"/>
<rect width="27.0366" height="27.0366" transform="translate(662.996 1599.23)" fill="white"/>
<rect width="27.0366" height="27.0366" transform="translate(717.07 1599.23)" fill="white"/>
<rect width="27.0366" height="27.0366" transform="translate(771.145 1599.23)" fill="white"/>
<rect width="27.0366" height="27.0366" transform="translate(825.219 1599.23)" fill="white"/>
<rect width="27.0366" height="27.0366" transform="translate(879.293 1599.23)" fill="white"/>
<rect width="27.0366" height="27.0366" transform="translate(933.363 1599.23)" fill="white"/>
<rect width="27.0366" height="27.0366" transform="translate(987.438 1599.23)" fill="white"/>
<rect width="27.0366" height="27.0366" transform="translate(1041.51 1599.23)" fill="white"/>
<rect width="27.0366" height="27.0366" transform="translate(1095.58 1599.23)" fill="white"/>
<rect width="27.0366" height="27.0366" transform="translate(1149.66 1599.23)" fill="white"/>
<rect width="27.0366" height="27.0366" transform="translate(1203.73 1599.23)" fill="white"/>
<rect width="27.0366" height="27.0366" transform="translate(1257.8 1599.23)" fill="white"/>
<rect width="27.0366" height="27.0366" transform="translate(1311.88 1599.23)" fill="white"/>
<rect width="27.0366" height="27.0366" transform="translate(1365.95 1599.23)" fill="white"/>
<rect width="27.0366" height="27.0366" transform="translate(1420.02 1599.23)" fill="white"/>
<rect width="27.0366" height="27.0366" transform="translate(1474.1 1599.23)" fill="white"/>
<rect width="27.0366" height="27.0366" transform="translate(1528.17 1599.23)" fill="white"/>
<rect width="27.0366" height="27.0366" transform="translate(1582.24 1599.23)" fill="white"/>
<rect width="27.0366" height="27.0366" transform="translate(1636.32 1599.23)" fill="white"/>
<path d="M702 1174C858 1351 1130 1354 1299.5 1162" stroke="white" stroke-width="66" stroke-linecap="round"/>
<path d="M2176.37 794.449H2528.61V916.726H2302.82V977.865H2490.4V1093.89H2302.82V1155.72H2528.61V1278H2176.37V794.449ZM2675.37 1278V794.449H2702.46L3040.12 1122.37V794.449H3065.82V1278H3040.12V1158.5L2701.08 827.797V1278H2675.37ZM3389.05 1046.65C3349.68 1038.77 3317.49 1030.2 3292.48 1020.94C3267.93 1011.21 3248.48 998.244 3234.12 982.033C3220.22 965.359 3213.27 944.053 3213.27 918.116C3213.27 891.252 3220.22 867.63 3234.12 847.251C3248.48 826.871 3268.39 811.123 3293.87 800.007C3319.8 788.891 3349.68 783.333 3383.49 783.333C3415.91 783.333 3445.55 790.281 3472.42 804.176C3499.75 817.608 3521.28 836.598 3537.03 861.146C3552.78 885.694 3560.65 913.716 3560.65 945.211H3534.95C3534.95 917.884 3528.23 893.799 3514.8 872.957C3501.37 852.114 3483.07 836.134 3459.91 825.018C3436.75 813.439 3411.05 807.649 3382.79 807.649C3357.78 807.649 3334.39 811.586 3312.62 819.46C3290.86 827.334 3273.02 839.377 3259.13 855.588C3245.7 871.799 3238.98 892.178 3238.98 916.726C3238.98 938.959 3245.46 956.791 3258.43 970.223C3271.4 983.191 3288.31 993.15 3309.15 1000.1C3329.99 1007.04 3359.17 1014.46 3396.69 1022.33C3434.67 1030.2 3464.08 1037.85 3484.92 1045.26C3506.23 1052.2 3524.06 1064.01 3538.42 1080.69C3553.24 1097.36 3560.65 1120.75 3560.65 1150.86C3560.65 1180.97 3552.55 1206.44 3536.34 1227.28C3520.59 1247.66 3499.51 1262.95 3473.11 1273.14C3446.71 1283.33 3418 1288.42 3386.96 1288.42C3348.52 1288.42 3314.71 1281.24 3285.53 1266.88C3256.35 1252.53 3233.89 1232.38 3218.14 1206.44C3202.85 1180.04 3195.21 1149.93 3195.21 1116.12H3220.92C3220.92 1145.76 3227.4 1171.7 3240.37 1193.93C3253.8 1216.17 3273.02 1233.54 3298.03 1246.04C3323.05 1258.08 3352.69 1264.1 3386.96 1264.1C3429.58 1264.1 3464.78 1253.92 3492.57 1233.54C3520.82 1213.16 3534.95 1185.37 3534.95 1150.16C3534.95 1126.08 3528.93 1107.55 3516.88 1094.58C3504.84 1081.62 3489.56 1072.35 3471.03 1066.79C3452.97 1060.77 3425.64 1054.06 3389.05 1046.65ZM3737.98 794.449V1121.68L4065.9 794.449H4102.03L3899.86 995.929L4101.34 1278H4070.77L3881.79 1013.99L3737.98 1157.81V1278H3712.27V794.449H3737.98ZM4393.99 794.449H4421.09L4619.79 1278H4592L4526.69 1118.21H4288.39L4222.39 1278H4195.29L4393.99 794.449ZM4298.81 1093.19H4516.27L4407.19 827.797L4298.81 1093.19ZM5026.38 810.428C5054.17 823.397 5075.94 842.619 5091.69 868.093C5107.9 893.568 5116.01 921.821 5116.01 952.854C5116.01 988.981 5104.89 1021.4 5082.66 1050.12C5060.89 1078.37 5032.87 1097.13 4998.59 1106.39L5121.57 1278H5091L4972.19 1111.26L4949.96 1111.95H4775.58V1278H4749.87V794.449H4933.98C4954.36 794.449 4971.73 795.839 4986.09 798.618C5000.91 800.933 5014.34 804.87 5026.38 810.428ZM4956.91 1086.25C4980.99 1086.25 5003.23 1080.23 5023.6 1068.18C5043.98 1056.14 5060.2 1039.93 5072.24 1019.55C5084.28 999.171 5090.3 976.939 5090.3 952.854C5090.3 925.99 5083.12 901.673 5068.76 879.904C5054.87 858.135 5035.42 841.924 5010.4 831.271C4992.34 823.86 4966.87 820.155 4933.98 820.155H4775.58V1086.25H4956.91ZM5630.99 794.449V820.155H5448.26V1278H5423.25V820.155H5240.53V794.449H5630.99Z" fill="black"/>
<defs>
<filter id="filter0_i_3_19603" x="98" y="352.901" width="1805.23" height="1346.94" filterUnits="userSpaceOnUse" color-interpolation-filters="sRGB">
<feFlood flood-opacity="0" result="BackgroundImageFix"/>
<feBlend mode="normal" in="SourceGraphic" in2="BackgroundImageFix" result="shape"/>
<feColorMatrix in="SourceAlpha" type="matrix" values="0 0 0 0 0 0 0 0 0 0 0 0 0 0 0 0 0 0 127 0" result="hardAlpha"/>
<feOffset/>
<feGaussianBlur stdDeviation="109.59"/>
<feComposite in2="hardAlpha" operator="arithmetic" k2="-1" k3="1"/>
<feColorMatrix type="matrix" values="0 0 0 0 0 0 0 0 0 0 0 0 0 0 0 0 0 0 0.25 0"/>
<feBlend mode="normal" in2="shape" result="effect1_innerShadow_3_19603"/>
</filter>
<linearGradient id="paint0_linear_3_19603" x1="1000.62" y1="352.901" x2="1000.8" y2="1699.55" gradientUnits="userSpaceOnUse">
<stop stop-color="#6D6D6D" stop-opacity="0.67"/>
<stop offset="1" stop-color="#2C2C2C"/>
</linearGradient>
<radialGradient id="paint1_radial_3_19603" cx="0" cy="0" r="1" gradientUnits="userSpaceOnUse" gradientTransform="translate(936.052 1065.95) scale(62.8112 62.8113)">
<stop stop-color="#45474F"/>
<stop offset="0.24" stop-color="#3F4048"/>
<stop offset="0.59" stop-color="#2D2E35"/>
<stop offset="1" stop-color="#0F1016"/>
</radialGradient>
<radialGradient id="paint2_radial_3_19603" cx="0" cy="0" r="1" gradientUnits="userSpaceOnUse" gradientTransform="translate(817.218 1106.11) scale(1190.62 1190.62)">
<stop stop-color="#45474F"/>
<stop offset="0.24" stop-color="#3F4048"/>
<stop offset="0.59" stop-color="#2D2E35"/>
<stop offset="1" stop-color="#0F1016"/>
</radialGradient>
<radialGradient id="paint3_radial_3_19603" cx="0" cy="0" r="1" gradientUnits="userSpaceOnUse" gradientTransform="translate(114.499 605.5) rotate(5.75266) scale(816.2 816.2)">
<stop stop-color="#58595B" stop-opacity="0.4"/>
<stop offset="1" stop-color="#024256"/>
</radialGradient>
<radialGradient id="paint4_radial_3_19603" cx="0" cy="0" r="1" gradientUnits="userSpaceOnUse" gradientTransform="translate(1176.5 670) scale(1006.5 1006.5)">
<stop stop-color="#024256"/>
<stop offset="1" stop-color="#58595B" stop-opacity="0.4"/>
</radialGradient>
<radialGradient id="paint5_radial_3_19603" cx="0" cy="0" r="1" gradientUnits="userSpaceOnUse" gradientTransform="translate(1427.85 496.985) scale(275.363 275.363)">
<stop stop-color="#58595B"/>
<stop offset="1"/>
</radialGradient>
<radialGradient id="paint6_radial_3_19603" cx="0" cy="0" r="1" gradientUnits="userSpaceOnUse" gradientTransform="translate(352.993 373.626) scale(6.82943)">
<stop stop-color="#45474F"/>
<stop offset="0.24" stop-color="#3F4048"/>
<stop offset="0.59" stop-color="#2D2E35"/>
<stop offset="1" stop-color="#0F1016"/>
</radialGradient>
<radialGradient id="paint7_radial_3_19603" cx="0" cy="0" r="1" gradientUnits="userSpaceOnUse" gradientTransform="translate(316.348 375.129) scale(8.3319)">
<stop stop-color="#45474F"/>
<stop offset="0.24" stop-color="#3F4048"/>
<stop offset="0.59" stop-color="#2D2E35"/>
<stop offset="1" stop-color="#0F1016"/>
</radialGradient>
<radialGradient id="paint8_radial_3_19603" cx="0" cy="0" r="1" gradientUnits="userSpaceOnUse" gradientTransform="translate(279.725 376.651) scale(9.8539 9.85388)">
<stop stop-color="#45474F"/>
<stop offset="0.24" stop-color="#3F4048"/>
<stop offset="0.59" stop-color="#2D2E35"/>
<stop offset="1" stop-color="#0F1016"/>
</radialGradient>
<radialGradient id="paint9_radial_3_19603" cx="0" cy="0" r="1" gradientUnits="userSpaceOnUse" gradientTransform="translate(243.079 378.153) scale(11.3564)">
<stop stop-color="#45474F"/>
<stop offset="0.24" stop-color="#3F4048"/>
<stop offset="0.59" stop-color="#2D2E35"/>
<stop offset="1" stop-color="#0F1016"/>
</radialGradient>
<radialGradient id="paint10_radial_3_19603" cx="0" cy="0" r="1" gradientUnits="userSpaceOnUse" gradientTransform="translate(206.456 379.675) scale(12.8784)">
<stop stop-color="#45474F"/>
<stop offset="0.24" stop-color="#3F4048"/>
<stop offset="0.59" stop-color="#2D2E35"/>
<stop offset="1" stop-color="#0F1016"/>
</radialGradient>
<radialGradient id="paint11_radial_3_19603" cx="0" cy="0" r="1" gradientUnits="userSpaceOnUse" gradientTransform="translate(169.811 381.177) scale(14.3808)">
<stop stop-color="#45474F"/>
<stop offset="0.24" stop-color="#3F4048"/>
<stop offset="0.59" stop-color="#2D2E35"/>
<stop offset="1" stop-color="#0F1016"/>
</radialGradient>
<linearGradient id="paint12_linear_3_19603" x1="346.83" y1="367.46" x2="356.469" y2="377.099" gradientUnits="userSpaceOnUse">
<stop stop-color="#3FAFB6"/>
<stop offset="0.28" stop-color="#59C5CC"/>
<stop offset="0.43" stop-color="#9BF2F8"/>
<stop offset="0.56" stop-color="#90F4FB"/>
<stop offset="0.63" stop-color="#90F6FD"/>
<stop offset="0.71" stop-color="#8FF4FB"/>
<stop offset="0.87" stop-color="#5DB8BE"/>
<stop offset="1" stop-color="#368388"/>
</linearGradient>
<linearGradient id="paint13_linear_3_19603" x1="309.13" y1="367.888" x2="320.917" y2="379.675" gradientUnits="userSpaceOnUse">
<stop stop-color="#3FAFB6"/>
<stop offset="0.28" stop-color="#59C5CC"/>
<stop offset="0.43" stop-color="#9BF2F8"/>
<stop offset="0.56" stop-color="#90F4FB"/>
<stop offset="0.63" stop-color="#90F6FD"/>
<stop offset="0.71" stop-color="#8FF4FB"/>
<stop offset="0.87" stop-color="#5DB8BE"/>
<stop offset="1" stop-color="#368388"/>
</linearGradient>
<linearGradient id="paint14_linear_3_19603" x1="271.423" y1="368.35" x2="285.331" y2="382.258" gradientUnits="userSpaceOnUse">
<stop stop-color="#3FAFB6"/>
<stop offset="0.28" stop-color="#59C5CC"/>
<stop offset="0.43" stop-color="#9BF2F8"/>
<stop offset="0.56" stop-color="#90F4FB"/>
<stop offset="0.63" stop-color="#90F6FD"/>
<stop offset="0.71" stop-color="#8FF4FB"/>
<stop offset="0.87" stop-color="#5DB8BE"/>
<stop offset="1" stop-color="#368388"/>
</linearGradient>
<linearGradient id="paint15_linear_3_19603" x1="233.737" y1="368.792" x2="249.765" y2="384.82" gradientUnits="userSpaceOnUse">
<stop stop-color="#3FAFB6"/>
<stop offset="0.28" stop-color="#59C5CC"/>
<stop offset="0.43" stop-color="#9BF2F8"/>
<stop offset="0.56" stop-color="#90F4FB"/>
<stop offset="0.63" stop-color="#90F6FD"/>
<stop offset="0.71" stop-color="#8FF4FB"/>
<stop offset="0.87" stop-color="#5DB8BE"/>
<stop offset="1" stop-color="#368388"/>
</linearGradient>
<linearGradient id="paint16_linear_3_19603" x1="196.02" y1="369.24" x2="214.197" y2="387.416" gradientUnits="userSpaceOnUse">
<stop stop-color="#3FAFB6"/>
<stop offset="0.28" stop-color="#59C5CC"/>
<stop offset="0.43" stop-color="#9BF2F8"/>
<stop offset="0.56" stop-color="#90F4FB"/>
<stop offset="0.63" stop-color="#90F6FD"/>
<stop offset="0.71" stop-color="#8FF4FB"/>
<stop offset="0.87" stop-color="#5DB8BE"/>
<stop offset="1" stop-color="#368388"/>
</linearGradient>
<linearGradient id="paint17_linear_3_19603" x1="158.334" y1="369.702" x2="178.631" y2="389.999" gradientUnits="userSpaceOnUse">
<stop stop-color="#3FAFB6"/>
<stop offset="0.28" stop-color="#59C5CC"/>
<stop offset="0.43" stop-color="#9BF2F8"/>
<stop offset="0.56" stop-color="#90F4FB"/>
<stop offset="0.63" stop-color="#90F6FD"/>
<stop offset="0.71" stop-color="#8FF4FB"/>
<stop offset="0.87" stop-color="#5DB8BE"/>
<stop offset="1" stop-color="#368388"/>
</linearGradient>
<radialGradient id="paint18_radial_3_19603" cx="0" cy="0" r="1" gradientUnits="userSpaceOnUse" gradientTransform="translate(1653.1 373.704) rotate(180) scale(6.82943)">
<stop stop-color="#45474F"/>
<stop offset="0.08" stop-color="#32343B"/>
<stop offset="0.19" stop-color="#22242A"/>
<stop offset="0.32" stop-color="#17181F"/>
<stop offset="0.5" stop-color="#111218"/>
<stop offset="1" stop-color="#0F1016"/>
</radialGradient>
<radialGradient id="paint19_radial_3_19603" cx="0" cy="0" r="1" gradientUnits="userSpaceOnUse" gradientTransform="translate(1689.73 375.206) rotate(180) scale(8.33194 8.33191)">
<stop stop-color="#45474F"/>
<stop offset="0.08" stop-color="#32343B"/>
<stop offset="0.19" stop-color="#22242A"/>
<stop offset="0.32" stop-color="#17181F"/>
<stop offset="0.5" stop-color="#111218"/>
<stop offset="1" stop-color="#0F1016"/>
</radialGradient>
<radialGradient id="paint20_radial_3_19603" cx="0" cy="0" r="1" gradientUnits="userSpaceOnUse" gradientTransform="translate(1726.37 376.728) rotate(180) scale(9.85393 9.8539)">
<stop stop-color="#45474F"/>
<stop offset="0.08" stop-color="#32343B"/>
<stop offset="0.19" stop-color="#22242A"/>
<stop offset="0.32" stop-color="#17181F"/>
<stop offset="0.5" stop-color="#111218"/>
<stop offset="1" stop-color="#0F1016"/>
</radialGradient>
<radialGradient id="paint21_radial_3_19603" cx="0" cy="0" r="1" gradientUnits="userSpaceOnUse" gradientTransform="translate(1763 378.231) rotate(180) scale(11.3564 11.3564)">
<stop stop-color="#45474F"/>
<stop offset="0.08" stop-color="#32343B"/>
<stop offset="0.19" stop-color="#22242A"/>
<stop offset="0.32" stop-color="#17181F"/>
<stop offset="0.5" stop-color="#111218"/>
<stop offset="1" stop-color="#0F1016"/>
</radialGradient>
<radialGradient id="paint22_radial_3_19603" cx="0" cy="0" r="1" gradientUnits="userSpaceOnUse" gradientTransform="translate(1799.64 379.753) rotate(180) scale(12.8784 12.8784)">
<stop stop-color="#45474F"/>
<stop offset="0.08" stop-color="#32343B"/>
<stop offset="0.19" stop-color="#22242A"/>
<stop offset="0.32" stop-color="#17181F"/>
<stop offset="0.5" stop-color="#111218"/>
<stop offset="1" stop-color="#0F1016"/>
</radialGradient>
<radialGradient id="paint23_radial_3_19603" cx="0" cy="0" r="1" gradientUnits="userSpaceOnUse" gradientTransform="translate(1836.27 381.255) rotate(180) scale(14.4003 14.4003)">
<stop stop-color="#45474F"/>
<stop offset="0.08" stop-color="#32343B"/>
<stop offset="0.19" stop-color="#22242A"/>
<stop offset="0.32" stop-color="#17181F"/>
<stop offset="0.5" stop-color="#111218"/>
<stop offset="1" stop-color="#0F1016"/>
</radialGradient>
<linearGradient id="paint24_linear_3_19603" x1="1646.37" y1="367.46" x2="1656.01" y2="377.099" gradientUnits="userSpaceOnUse">
<stop stop-color="#3FAFB6"/>
<stop offset="0.28" stop-color="#59C5CC"/>
<stop offset="0.43" stop-color="#9BF2F8"/>
<stop offset="0.56" stop-color="#90F4FB"/>
<stop offset="0.63" stop-color="#90F6FD"/>
<stop offset="0.71" stop-color="#8FF4FB"/>
<stop offset="0.87" stop-color="#5DB8BE"/>
<stop offset="1" stop-color="#368388"/>
</linearGradient>
<linearGradient id="paint25_linear_3_19603" x1="1681.94" y1="367.902" x2="1693.7" y2="379.662" gradientUnits="userSpaceOnUse">
<stop stop-color="#3FAFB6"/>
<stop offset="0.28" stop-color="#59C5CC"/>
<stop offset="0.43" stop-color="#9BF2F8"/>
<stop offset="0.56" stop-color="#90F4FB"/>
<stop offset="0.63" stop-color="#90F6FD"/>
<stop offset="0.71" stop-color="#8FF4FB"/>
<stop offset="0.87" stop-color="#5DB8BE"/>
<stop offset="1" stop-color="#368388"/>
</linearGradient>
<linearGradient id="paint26_linear_3_19603" x1="1717.51" y1="368.35" x2="1731.41" y2="382.258" gradientUnits="userSpaceOnUse">
<stop stop-color="#3FAFB6"/>
<stop offset="0.28" stop-color="#59C5CC"/>
<stop offset="0.43" stop-color="#9BF2F8"/>
<stop offset="0.56" stop-color="#90F4FB"/>
<stop offset="0.63" stop-color="#90F6FD"/>
<stop offset="0.71" stop-color="#8FF4FB"/>
<stop offset="0.87" stop-color="#5DB8BE"/>
<stop offset="1" stop-color="#368388"/>
</linearGradient>
<linearGradient id="paint27_linear_3_19603" x1="1753.09" y1="368.792" x2="1769.12" y2="384.82" gradientUnits="userSpaceOnUse">
<stop stop-color="#3FAFB6"/>
<stop offset="0.28" stop-color="#59C5CC"/>
<stop offset="0.43" stop-color="#9BF2F8"/>
<stop offset="0.56" stop-color="#90F4FB"/>
<stop offset="0.63" stop-color="#90F6FD"/>
<stop offset="0.71" stop-color="#8FF4FB"/>
<stop offset="0.87" stop-color="#5DB8BE"/>
<stop offset="1" stop-color="#368388"/>
</linearGradient>
<linearGradient id="paint28_linear_3_19603" x1="1788.64" y1="369.24" x2="1806.82" y2="387.417" gradientUnits="userSpaceOnUse">
<stop stop-color="#3FAFB6"/>
<stop offset="0.28" stop-color="#59C5CC"/>
<stop offset="0.43" stop-color="#9BF2F8"/>
<stop offset="0.56" stop-color="#90F4FB"/>
<stop offset="0.63" stop-color="#90F6FD"/>
<stop offset="0.71" stop-color="#8FF4FB"/>
<stop offset="0.87" stop-color="#5DB8BE"/>
<stop offset="1" stop-color="#368388"/>
</linearGradient>
<linearGradient id="paint29_linear_3_19603" x1="1824.22" y1="369.702" x2="1844.52" y2="389.999" gradientUnits="userSpaceOnUse">
<stop stop-color="#3FAFB6"/>
<stop offset="0.28" stop-color="#59C5CC"/>
<stop offset="0.43" stop-color="#9BF2F8"/>
<stop offset="0.56" stop-color="#90F4FB"/>
<stop offset="0.63" stop-color="#90F6FD"/>
<stop offset="0.71" stop-color="#8FF4FB"/>
<stop offset="0.87" stop-color="#5DB8BE"/>
<stop offset="1" stop-color="#368388"/>
</linearGradient>
</defs>
</svg>
